HIERARCHY
ROOT Hips
{
    OFFSET 0.0 0.0 0.0
    CHANNELS 6 Xposition Yposition Zposition Zrotation Xrotation Yrotation
    JOINT Spine
    {
        OFFSET 0.0 24.003020871154447 0.0
        CHANNELS 3 Zrotation Xrotation Yrotation
        JOINT Chest
        {
            OFFSET 0.0 24.003020871154447 0.0
            CHANNELS 3 Zrotation Xrotation Yrotation
            JOINT Head
            {
                OFFSET 0.0 13.142721840190227 0.0
                CHANNELS 3 Zrotation Xrotation Yrotation
            }
            JOINT LeftUpperArm
            {
                OFFSET 13.380597966711289 0.0 0.0
                CHANNELS 3 Zrotation Xrotation Yrotation
                JOINT LeftLowerArm
                {
                    OFFSET 23.194551698176113 0.0 0.0
                    CHANNELS 3 Zrotation Xrotation Yrotation
                    JOINT LeftHand
                    {
                        OFFSET 18.20849351733426 0.0 0.0
                        CHANNELS 3 Zrotation Xrotation Yrotation
                    }
                    End Site
                    {
                    OFFSET 7.371514576908149 0.0 0.0
                    }
                }
            }
            JOINT RightUpperArm
            {
                OFFSET -13.380597966711289 0.0 0.0
                CHANNELS 3 Zrotation Xrotation Yrotation
                JOINT RightLowerArm
                {
                    OFFSET 23.194551698176113 0.0 0.0
                    CHANNELS 3 Zrotation Xrotation Yrotation
                    JOINT RightHand
                    {
                        OFFSET 18.20849351733426 0.0 0.0
                        CHANNELS 3 Zrotation Xrotation Yrotation
                    }
                    End Site
                    {
                    OFFSET 7.371514576908149 0.0 0.0
                    }
                }
            }
        }
    }
    JOINT LeftUpperLeg
    {
        OFFSET 8.958110179177737 0.0 0.0
        CHANNELS 3 Zrotation Xrotation Yrotation
        JOINT LeftLowerLeg
        {
            OFFSET 37.758569956614494 0.0 0.0
            CHANNELS 3 Zrotation Xrotation Yrotation
            JOINT LeftFootAnkle
            {
                OFFSET 36.358075242534284 0.0 0.0
                CHANNELS 3 Zrotation Xrotation Yrotation
                End Site
                {
                OFFSET 7.669964643802583 0.0 0.0
                }
            }
        }
    }
    JOINT RightUpperLeg
    {
        OFFSET -8.958110179177737 0.0 0.0
        CHANNELS 3 Zrotation Xrotation Yrotation
        JOINT RightLowerLeg
        {
            OFFSET 37.758569956614494 0.0 0.0
            CHANNELS 3 Zrotation Xrotation Yrotation
            JOINT RightFootAnkle
            {
                OFFSET 36.358075242534284 0.0 0.0
                CHANNELS 3 Zrotation Xrotation Yrotation
                End Site
                {
                OFFSET 7.669964643802583 0.0 0.0
                }
            }
        }
    }
}
MOTION
Frames: 12
Frame Time: 0.03333333333333333
-0.05939515068840521 -0.2636401202973757 -0.027226679375539818 -11.633397340802807 -0.6130790415181461 11.067407503383311 -0.9796196792145104 0.7949208211158794 -13.339419959525005 -0.7690708924623103 1.001307294719908 -13.353101460372015 33.31683684657358 48.2779473374957 4.382772224490777 -79.60546770061646 -47.43403791048427 19.120354379532444 149.6242724796105 -48.350498624855085 141.88914744132825 -142.42088791115987 21.277865069393094 157.61263072343155 101.9096700626385 36.971469756462255 163.67122717902822 178.69947839450313 -43.87348560546541 178.1238788962093 -58.524648652645325 -30.454570094478395 -10.02513788699718 -107.41468084159168 -70.63344752768451 -23.321364943485946 -134.06196817072438 -50.22579239380939 180.0 -117.92367693202728 29.852212292299228 180.0 133.76442893965225 -81.00288450868439 -153.81286053628494 -144.82089158125387 -27.4771222255862 180.0 -100.27904512710411 -22.74851426111274 180.0
-0.06936237156428685 -0.26345069658221365 -0.016817573654485433 -11.71365114882756 -1.1410828139555025 10.866521601720178 -1.2065274938047865 0.7580810165253208 -13.657434279407399 -0.9926024446708036 1.023620130093237 -13.672534201494408 32.91712934306054 48.184800480488995 5.02582020414785 -71.01542695864802 -54.46826206542541 24.32727915670213 135.10197900585956 -50.516290718510966 127.7598495998185 -138.90792201139084 16.40481076024713 158.99342703942511 -169.19784945723524 77.70448113313155 80.89791004703311 7.471959376608186 -76.57964129452323 7.679251015973047 -71.5470848708661 -29.698577238625294 -16.543834238326376 -105.66256682518434 -71.02166408119271 -22.057968418885444 -134.5591541015146 -47.832110630148385 180.0 -122.88924519708476 33.74443582301925 180.0 115.02128563829471 -79.43467517929798 -173.3278308896294 -148.1871827886304 -24.307505683359725 180.0 -101.43396780330943 -12.357614941351493 180.0
-0.07448342827365406 -0.26371835840613006 -0.013703898384946532 -11.784661436980237 -1.2068365890017145 10.819226712923399 -1.2993531856323686 0.7700270877856327 -13.728833351062173 -1.0785724879816005 1.0587443872480593 -13.745087780061032 32.070998603468766 48.03250925401809 6.089917191237573 -67.40431024327007 -55.299634037646314 26.616339196286102 132.37756357546235 -50.03509697981958 124.96524499356832 -139.5103627253824 15.742456946937772 158.97125071106234 -115.42786786819391 65.10825786798426 29.53864261028083 6.913679157787796 -54.77700100193635 8.44284481621433 -75.34612385319464 -28.724356656813033 -19.08296826760326 -105.20993031942753 -71.03597473308805 -21.86036087429363 -135.59574628013956 -48.61884116654392 180.0 -125.99336951619594 36.09546170052682 180.0 109.1088498077102 -78.08056426828993 -179.6507139653975 -149.9993476253773 -22.901793077963376 180.0 -103.07573442255759 -5.480883909060715 180.0
-0.0800505290281047 -0.264503434137184 -0.010420127932431293 -11.827569631335482 -1.8569257612675596 10.644708962328309 -1.5919779918150203 0.7437805056662515 -13.940204383378937 -1.3648458576910865 1.108203822090361 -13.958042009513767 33.193156557197206 48.220895037902444 5.021503079148238 -62.83532667282329 -56.607565721407006 29.81159687180116 131.0503196967012 -49.64026221001573 123.56692766016039 -140.77399555081888 14.973923795677635 159.21853386121364 -110.36758614473649 61.0753729426411 25.079247798404683 4.7745035152780275 -51.6628465571314 6.078245640892949 -72.7959694784242 -30.004744053439932 -18.33592797023218 -103.48051656346323 -71.71409822186139 -20.485684507272804 -136.90401790331316 -48.6789940161721 180.0 -130.72242515497103 40.093521809789785 180.0 101.94345729259264 -76.96798458720266 172.71409018368496 -151.28083316722558 -23.298643806618188 180.0 -104.20039964594339 -4.090403140756939 180.0
-0.08355012671161328 -0.2642646590359209 -0.014850674039181071 -11.716781624344618 -2.90741451216696 10.69722971554354 -1.86157602031668 0.707736201748447 -13.81670318248422 -1.6375476728258296 1.1350114410878454 -13.835025560582052 33.82332704156487 48.96044433111761 4.141916216613575 -49.92599074604726 -59.86302707462449 38.86322127333973 121.0670114080996 -49.46210328719068 114.60069379374622 -141.08628671393748 11.06650485036935 160.96949340794163 -100.05565257574527 42.11188054302148 17.687722867411935 2.1241815371920096 -29.305236216283927 4.333535053454635 -75.13327608955382 -26.40271677871089 -21.727242518648936 -100.31810031140621 -72.04602278881231 -17.307736742078184 -137.4396036162328 -48.78662918468005 180.0 -132.38233838726254 41.20289946154349 180.0 97.04220847501026 -77.31841793302955 167.6539672603233 -151.29004619748295 -21.798717725301763 180.0 -104.63324598591764 1.9625716399410806 180.0
-0.08655788572870331 -0.2644672653920213 -0.0139255188683491 -11.77863019826627 -2.8174177070837345 10.712590019358542 -2.028256708980396 0.763312190992762 -13.814654763902709 -1.7858689729764472 1.2295855196101064 -13.836092759669555 33.34268088012818 49.13814632723327 4.332217948468859 -51.51992227926878 -59.42182246267717 37.538318886771236 124.89963660575522 -49.14709182640329 117.81876357762941 -140.68085742692315 10.829280565921684 160.6541182353944 -97.09707344459109 35.86748928960617 15.970818659565621 1.4862024878898659 -21.635096501819902 4.025260409799346 -75.4639985768729 -27.414897364149592 -24.19363389180108 -100.65598825600173 -72.19407342074946 -17.822532802627602 -137.84381154331152 -44.40804831025571 180.0 -137.32022264324436 46.006829561787725 180.0 96.51137992415653 -77.25151373031599 167.08133703063945 -151.52024098822295 -21.301735491316705 180.0 -105.17599696224462 3.7612058036421776 180.0
-0.08805063101973919 -0.2638740264142246 -0.007020323944367408 -12.031594177510073 -1.4746390887940715 10.746194279537534 -1.7177546502309904 0.7459145025308256 -13.506363747402126 -1.4948817883124839 1.1296687088384065 -13.525217428621946 31.773038092412275 48.5066403192891 6.23967351164237 -51.81020226365151 -60.54183436617556 37.17616991345024 120.72961073217026 -51.264082167138376 114.87707304085097 -139.8637218454442 15.128608537184508 158.74849502836742 -95.31057591997171 32.2192706732994 14.326245746417927 1.1888097544897824 -15.824243093083327 4.35184489134546 -76.83714042586038 -29.12668690587026 -27.21790663807563 -104.66972029272937 -71.85167500292926 -22.04939527981103 -137.98434185815324 -43.11433197105695 180.0 -138.71789252773837 47.449795345236645 180.0 102.86162676117088 -77.47546197482913 173.66827353002722 -151.16744727926977 -20.5038118899262 180.0 -104.56589708738265 5.159041430566377 180.0
-0.08992015952017365 -0.263082219170867 -0.0026041728595814937 -12.212780823211064 -0.6027509505258876 10.77074822797259 -1.504736010091933 0.7440585420656949 -13.38154081803672 -1.2906870003933864 1.0748182028306408 -13.398780496193366 30.76876936406363 48.2159205311321 7.486601482027934 -52.777206556344936 -61.838738198557465 36.0527660167203 117.45888143527611 -53.24050750912858 112.60314562560158 -138.5336059293872 18.476996902230493 157.02977370219202 -93.67314976138579 28.416957787471947 12.882169867531061 0.7336627364257399 -12.146997471265017 3.482545533177754 -76.72660353676933 -30.61784085683124 -27.82329317848725 -107.13126253885426 -71.64676917996412 -24.707165016428178 -138.1797242029049 -42.35203500813791 180.0 -139.37129084324192 47.92867097712523 180.0 106.41008599254569 -77.392375412961 177.33583793198065 -151.17405192545294 -20.1984276251422 180.0 -104.52848379013994 5.319896505044421 180.0
-0.09104185655702007 -0.2631989921881077 -0.0028558979107720863 -12.252429752334116 -0.6580912845889271 10.818581099973027 -1.5049301394019927 0.7632436811301636 -13.374339840420166 -1.28652282877129 1.093490944569263 -13.39217018523735 30.663004631018254 48.23486631900908 7.461413040805355 -53.46057431935264 -61.421629557873565 35.42834621613748 115.29751876092018 -53.7558332361712 110.86636343275468 -136.78437699196385 19.749937042275523 156.275267365708 -90.64278948887758 15.582785755379591 11.845807047886087 -0.07034000463904673 1.1276426773152464 3.5695984986976614 -77.38619472581442 -30.330165494849947 -27.63294834571295 -106.8038952860293 -71.59741217309288 -24.504503325255783 -138.4986049080966 -42.949300919012146 180.0 -139.40016297976447 47.66027267270298 180.0 106.10766962695804 -77.32776503109241 176.9208200581104 -151.29527406312107 -19.376421115686938 180.0 -104.58949493969675 8.535734056410094 180.0
-0.09187377152453512 -0.26316514931792173 -0.0025164039915241015 -12.3136679077375 -0.6861817751475827 10.810875374052786 -1.5296311457880243 0.7886383466225084 -13.38132453874655 -1.3044554341928911 1.1242976291672258 -13.400147112829238 30.379732182440208 48.23835530840148 7.4714917213762755 -54.10143793314437 -61.104656635645206 34.768982033814254 116.48292161679754 -53.31467576932669 111.7781163508589 -137.03757915847441 19.480532459481886 156.57583325008963 -89.23681006386447 9.163366694132922 11.671137365469884 -0.6025879425897337 7.760610121624865 4.453649718309628 -76.87834290344048 -29.620647514647516 -27.806403135473335 -106.59393608003988 -71.58153109377604 -24.444785416757362 -139.29464768715417 -44.868081563248936 180.0 -138.9477784395555 47.41039566069926 180.0 106.33590154188072 -77.23728056378233 177.0480668915236 -151.5611228631344 -19.397363105254193 180.0 -104.76696850968519 6.978468058089774 180.0
-0.09324282378328524 -0.2631714554908806 -0.005201385096051789 -12.174166870841816 -1.268287031584427 10.819267917920616 -1.774933222934931 0.847351071391119 -13.587711206533951 -1.5246540217638869 1.2447595029226266 -13.610585785826073 30.235185922299483 48.60800837704885 7.507852255589014 -53.068771911359455 -60.53149277952316 35.17462125014012 118.68490687718024 -51.21854264134588 113.09917900791783 -138.16142235131662 15.54204843554089 158.23952915183364 -87.16044081213003 -1.9175153010229653 13.257893862760499 -2.3459312767571854 19.2698353691247 7.076281617173857 -74.90551126007742 -24.759433927800938 -28.373444401760793 -104.95118671300676 -71.77367564446217 -22.79427558567201 -139.24282207719975 -45.400854610557765 180.0 -139.03127278985457 47.074038374234355 180.0 103.92647499914483 -77.85457138857002 174.5257825420291 -151.58320598980913 -18.931314853616424 180.0 -104.75840297262913 5.647692162035814 180.0
-0.09468894491373199 -0.261595854048159 -0.004278180307470883 -12.08519174604175 -1.392249830415935 10.909750265123671 -2.0437569293164173 0.9473746112942539 -13.577981125356628 -1.7620136528695465 1.4067089903847032 -13.607144003605754 30.133358879336505 48.35519980022205 7.354451842910314 -51.39381569119881 -60.73936049170083 35.57728183464649 117.70747524718027 -51.02335706169808 112.20895615586605 -138.4381914997076 15.03256394884161 158.45549055975985 -88.1446755411552 5.723459214347212 13.306390367774267 -1.274311918277377 10.557130597299269 6.922514236784809 -75.13843892065434 -23.641852521864905 -27.170044996072132 -104.61599618898856 -71.73015818088433 -22.50983175407259 -139.4859664921266 -43.873148207582084 180.0 -139.58166773753263 47.303787764564426 180.0 106.26767850856656 -76.81480183661502 176.61166936200408 -151.60079836699614 -18.949939598488925 180.0 -104.34586662941678 9.128217165744267 180.0
